<?xml version="1.0" standalone="no"?>
<!DOCTYPE svg PUBLIC "-//W3C//DTD SVG 20010904//EN"
 "http://www.w3.org/TR/2001/REC-SVG-20010904/DTD/svg10.dtd">
<svg version="1.0" xmlns="http://www.w3.org/2000/svg"
 width="700.000000pt" height="700.000000pt" viewBox="0 0 700.000000 700.000000"
 preserveAspectRatio="xMidYMid meet">
<metadata>
Created by potrace 1.14, written by Peter Selinger 2001-2017
</metadata>
<g transform="translate(0.000000,700.000000) scale(0.100000,-0.100000)"
fill="#000000" stroke="none">
<path d="M765 6994 c-11 -2 -45 -9 -75 -15 -232 -45 -439 -197 -577 -424 -27
-43 -55 -114 -80 -195 -22 -72 -26 -105 -27 -220 0 -138 1 -152 29 -255 59
-221 234 -433 445 -540 496 -251 1099 21 1241 560 24 90 34 282 19 355 -5 25
-12 56 -14 69 -24 111 -102 267 -181 360 -36 42 -115 114 -163 149 -90 65
-242 130 -342 147 -47 8 -250 15 -275 9z"/>
<path d="M3283 6980 c-66 -23 -104 -50 -146 -103 -40 -51 -54 -79 -66 -134 -9
-44 -8 -288 2 -339 4 -16 9 -49 12 -74 17 -125 86 -334 154 -466 124 -239 209
-341 506 -609 135 -122 187 -178 241 -257 68 -101 138 -269 149 -353 1 -11 5
-35 9 -53 5 -19 9 -111 11 -205 4 -197 7 -214 42 -279 32 -59 83 -107 148
-138 67 -34 206 -35 275 -3 60 28 122 89 157 154 l28 54 0 210 c0 263 -13 365
-66 543 -41 134 -153 364 -226 461 -100 135 -172 210 -387 406 -159 145 -198
189 -263 295 -58 96 -98 200 -128 330 -5 19 -16 171 -19 246 -3 72 -9 101 -30
146 -31 66 -98 131 -164 160 -67 29 -172 33 -239 8z"/>
<path d="M4825 6985 c-118 -44 -189 -119 -219 -233 -13 -49 -14 -236 -2 -342
10 -83 55 -275 83 -355 40 -114 139 -303 211 -404 72 -101 214 -251 352 -372
236 -207 342 -359 399 -570 29 -109 32 -137 36 -327 5 -239 32 -310 148 -387
182 -121 420 -39 492 170 33 96 16 533 -26 642 -5 13 -7 23 -4 23 7 0 -33 127
-70 221 -61 154 -143 294 -243 419 -77 95 -124 142 -342 340 -123 112 -125
113 -197 209 -118 156 -181 342 -189 556 -3 72 -10 150 -15 175 -21 92 -97
182 -187 222 -59 26 -173 33 -227 13z"/>
<path d="M1125 4799 c-22 -4 -58 -11 -80 -14 -66 -10 -238 -71 -324 -115 -154
-77 -347 -234 -436 -355 -17 -22 -32 -42 -36 -45 -18 -16 -106 -172 -139 -247
-41 -93 -84 -244 -99 -353 -6 -38 -10 -655 -9 -1485 l0 -1420 23 -92 c81 -320
307 -551 632 -645 l78 -23 2765 0 2765 0 79 23 c199 58 363 167 477 319 70 94
110 172 146 288 l28 90 0 1025 0 1025 -28 90 c-24 76 -89 219 -107 235 -3 3
-14 19 -24 35 -32 50 -137 155 -203 201 -82 59 -196 111 -307 139 l-91 24
-1235 1 c-1239 1 -1338 2 -1385 20 -14 5 -25 8 -25 6 0 -4 -65 16 -120 36 -58
23 -188 96 -210 118 -3 3 -129 97 -280 210 -151 113 -281 211 -290 217 -8 7
-165 125 -348 262 -419 313 -501 357 -772 416 -84 19 -135 23 -255 23 -82 -1
-168 -4 -190 -9z m504 -2199 c50 -25 88 -68 106 -119 13 -38 15 -138 15 -730
0 -414 -4 -700 -10 -721 -13 -46 -63 -106 -108 -129 -113 -57 -248 -8 -300
108 -19 41 -20 70 -18 750 l1 706 28 47 c60 103 184 141 286 88z m1305 5 c61
-29 110 -91 123 -154 3 -14 5 -337 5 -716 1 -685 0 -691 -21 -732 -84 -165
-306 -169 -389 -9 l-26 51 -1 690 c-1 774 -3 756 66 824 67 66 163 84 243 46z
m1305 4 c18 -6 49 -28 68 -48 70 -72 66 -32 68 -796 1 -505 -2 -701 -11 -731
-54 -190 -313 -213 -401 -36 l-26 53 0 697 c0 678 1 699 20 742 51 113 160
159 282 119z m1308 0 c50 -19 91 -58 116 -112 l25 -52 -2 -700 c-2 -385 -5
-707 -7 -715 -19 -67 -90 -132 -164 -148 -107 -24 -222 43 -253 147 -17 55
-17 1388 0 1443 34 115 170 181 285 137z"/>
</g>
</svg>
